<mxfile host="app.diagrams.net" agent="Mozilla/5.0 (Windows NT 10.0; Win64; x64; rv:139.0) Gecko/20100101 Firefox/139.0" version="27.1.4">
  <diagram id="C5RBs43oDa-KdzZeNtuy" name="Page-1">
    <mxGraphModel dx="819" dy="723" grid="1" gridSize="10" guides="1" tooltips="1" connect="1" arrows="1" fold="1" page="1" pageScale="1" pageWidth="827" pageHeight="1169" math="0" shadow="0">
      <root>
        <mxCell id="WIyWlLk6GJQsqaUBKTNV-0" />
        <mxCell id="WIyWlLk6GJQsqaUBKTNV-1" parent="WIyWlLk6GJQsqaUBKTNV-0" />
        <mxCell id="zkfFHV4jXpPFQw0GAbJ--0" value="Movies" style="swimlane;fontStyle=2;align=center;verticalAlign=top;childLayout=stackLayout;horizontal=1;startSize=26;horizontalStack=0;resizeParent=1;resizeLast=0;collapsible=1;marginBottom=0;rounded=0;shadow=0;strokeWidth=1;labelBackgroundColor=none;fillColor=#B2C9AB;strokeColor=#788AA3;fontColor=#46495D;" parent="WIyWlLk6GJQsqaUBKTNV-1" vertex="1">
          <mxGeometry x="30" y="40" width="230" height="218" as="geometry">
            <mxRectangle x="220" y="120" width="160" height="26" as="alternateBounds" />
          </mxGeometry>
        </mxCell>
        <mxCell id="zkfFHV4jXpPFQw0GAbJ--1" value="Name" style="text;align=left;verticalAlign=top;spacingLeft=4;spacingRight=4;overflow=hidden;rotatable=0;points=[[0,0.5],[1,0.5]];portConstraint=eastwest;labelBackgroundColor=none;fontColor=#46495D;" parent="zkfFHV4jXpPFQw0GAbJ--0" vertex="1">
          <mxGeometry y="26" width="230" height="26" as="geometry" />
        </mxCell>
        <mxCell id="EHnvzy9CIs-lDDVMUMUv-55" value="Image_url" style="text;align=left;verticalAlign=top;spacingLeft=4;spacingRight=4;overflow=hidden;rotatable=0;points=[[0,0.5],[1,0.5]];portConstraint=eastwest;rounded=0;shadow=0;html=0;labelBackgroundColor=none;fontColor=#46495D;" vertex="1" parent="zkfFHV4jXpPFQw0GAbJ--0">
          <mxGeometry y="52" width="230" height="26" as="geometry" />
        </mxCell>
        <mxCell id="zkfFHV4jXpPFQw0GAbJ--2" value="release_year" style="text;align=left;verticalAlign=top;spacingLeft=4;spacingRight=4;overflow=hidden;rotatable=0;points=[[0,0.5],[1,0.5]];portConstraint=eastwest;rounded=0;shadow=0;html=0;labelBackgroundColor=none;fontColor=#46495D;" parent="zkfFHV4jXpPFQw0GAbJ--0" vertex="1">
          <mxGeometry y="78" width="230" height="26" as="geometry" />
        </mxCell>
        <mxCell id="EHnvzy9CIs-lDDVMUMUv-1" value="score&#xa;" style="text;align=left;verticalAlign=top;spacingLeft=4;spacingRight=4;overflow=hidden;rotatable=0;points=[[0,0.5],[1,0.5]];portConstraint=eastwest;rounded=0;shadow=0;html=0;labelBackgroundColor=none;fontColor=#46495D;" vertex="1" parent="zkfFHV4jXpPFQw0GAbJ--0">
          <mxGeometry y="104" width="230" height="22" as="geometry" />
        </mxCell>
        <mxCell id="EHnvzy9CIs-lDDVMUMUv-2" value="source_url" style="text;align=left;verticalAlign=top;spacingLeft=4;spacingRight=4;overflow=hidden;rotatable=0;points=[[0,0.5],[1,0.5]];portConstraint=eastwest;rounded=0;shadow=0;html=0;labelBackgroundColor=none;fontColor=#46495D;" vertex="1" parent="zkfFHV4jXpPFQw0GAbJ--0">
          <mxGeometry y="126" width="230" height="22" as="geometry" />
        </mxCell>
        <mxCell id="zkfFHV4jXpPFQw0GAbJ--4" value="" style="line;html=1;strokeWidth=1;align=left;verticalAlign=middle;spacingTop=-1;spacingLeft=3;spacingRight=3;rotatable=0;labelPosition=right;points=[];portConstraint=eastwest;labelBackgroundColor=none;fillColor=#B2C9AB;strokeColor=#788AA3;fontColor=#46495D;" parent="zkfFHV4jXpPFQw0GAbJ--0" vertex="1">
          <mxGeometry y="148" width="230" height="10" as="geometry" />
        </mxCell>
        <mxCell id="zkfFHV4jXpPFQw0GAbJ--3" value="category_id" style="text;align=left;verticalAlign=top;spacingLeft=4;spacingRight=4;overflow=hidden;rotatable=0;points=[[0,0.5],[1,0.5]];portConstraint=eastwest;rounded=0;shadow=0;html=0;labelBackgroundColor=none;fontColor=#46495D;" parent="zkfFHV4jXpPFQw0GAbJ--0" vertex="1">
          <mxGeometry y="158" width="230" height="22" as="geometry" />
        </mxCell>
        <mxCell id="aw_Vfg0cEFO7rDNiJGVb-2" value="tag_id" style="text;align=left;verticalAlign=top;spacingLeft=4;spacingRight=4;overflow=hidden;rotatable=0;points=[[0,0.5],[1,0.5]];portConstraint=eastwest;rounded=0;shadow=0;html=0;labelBackgroundColor=none;fontColor=#46495D;" parent="zkfFHV4jXpPFQw0GAbJ--0" vertex="1">
          <mxGeometry y="180" width="230" height="22" as="geometry" />
        </mxCell>
        <mxCell id="zkfFHV4jXpPFQw0GAbJ--17" value="Category" style="swimlane;fontStyle=2;align=center;verticalAlign=top;childLayout=stackLayout;horizontal=1;startSize=26;horizontalStack=0;resizeParent=1;resizeLast=0;collapsible=1;marginBottom=0;rounded=0;shadow=0;strokeWidth=1;labelBackgroundColor=none;fillColor=#B2C9AB;strokeColor=#788AA3;fontColor=#46495D;" parent="WIyWlLk6GJQsqaUBKTNV-1" vertex="1">
          <mxGeometry x="350" y="70" width="160" height="90" as="geometry">
            <mxRectangle x="550" y="140" width="160" height="26" as="alternateBounds" />
          </mxGeometry>
        </mxCell>
        <mxCell id="zkfFHV4jXpPFQw0GAbJ--18" value="id" style="text;align=left;verticalAlign=top;spacingLeft=4;spacingRight=4;overflow=hidden;rotatable=0;points=[[0,0.5],[1,0.5]];portConstraint=eastwest;labelBackgroundColor=none;fontColor=#46495D;" parent="zkfFHV4jXpPFQw0GAbJ--17" vertex="1">
          <mxGeometry y="26" width="160" height="26" as="geometry" />
        </mxCell>
        <mxCell id="zkfFHV4jXpPFQw0GAbJ--19" value="name" style="text;align=left;verticalAlign=top;spacingLeft=4;spacingRight=4;overflow=hidden;rotatable=0;points=[[0,0.5],[1,0.5]];portConstraint=eastwest;rounded=0;shadow=0;html=0;labelBackgroundColor=none;fontColor=#46495D;" parent="zkfFHV4jXpPFQw0GAbJ--17" vertex="1">
          <mxGeometry y="52" width="160" height="26" as="geometry" />
        </mxCell>
        <mxCell id="EHnvzy9CIs-lDDVMUMUv-3" value="tag" style="swimlane;fontStyle=2;align=center;verticalAlign=top;childLayout=stackLayout;horizontal=1;startSize=26;horizontalStack=0;resizeParent=1;resizeLast=0;collapsible=1;marginBottom=0;rounded=0;shadow=0;strokeWidth=1;labelBackgroundColor=none;fillColor=#B2C9AB;strokeColor=#788AA3;fontColor=#46495D;" vertex="1" parent="WIyWlLk6GJQsqaUBKTNV-1">
          <mxGeometry x="350" y="168" width="160" height="90" as="geometry">
            <mxRectangle x="550" y="140" width="160" height="26" as="alternateBounds" />
          </mxGeometry>
        </mxCell>
        <mxCell id="EHnvzy9CIs-lDDVMUMUv-4" value="id" style="text;align=left;verticalAlign=top;spacingLeft=4;spacingRight=4;overflow=hidden;rotatable=0;points=[[0,0.5],[1,0.5]];portConstraint=eastwest;labelBackgroundColor=none;fontColor=#46495D;" vertex="1" parent="EHnvzy9CIs-lDDVMUMUv-3">
          <mxGeometry y="26" width="160" height="26" as="geometry" />
        </mxCell>
        <mxCell id="EHnvzy9CIs-lDDVMUMUv-5" value="name" style="text;align=left;verticalAlign=top;spacingLeft=4;spacingRight=4;overflow=hidden;rotatable=0;points=[[0,0.5],[1,0.5]];portConstraint=eastwest;rounded=0;shadow=0;html=0;labelBackgroundColor=none;fontColor=#46495D;" vertex="1" parent="EHnvzy9CIs-lDDVMUMUv-3">
          <mxGeometry y="52" width="160" height="26" as="geometry" />
        </mxCell>
        <mxCell id="EHnvzy9CIs-lDDVMUMUv-10" value="" style="edgeStyle=entityRelationEdgeStyle;fontSize=12;html=1;endArrow=ERone;endFill=1;rounded=0;strokeColor=#788AA3;fontColor=#46495D;fillColor=#B2C9AB;entryX=-0.016;entryY=0.454;entryDx=0;entryDy=0;entryPerimeter=0;" edge="1" parent="WIyWlLk6GJQsqaUBKTNV-1" source="zkfFHV4jXpPFQw0GAbJ--3" target="zkfFHV4jXpPFQw0GAbJ--18">
          <mxGeometry width="100" height="100" relative="1" as="geometry">
            <mxPoint x="260" y="180" as="sourcePoint" />
            <mxPoint x="360" y="80" as="targetPoint" />
            <Array as="points">
              <mxPoint x="280" y="160" />
              <mxPoint x="280" y="160" />
              <mxPoint x="290" y="130" />
              <mxPoint x="300" y="100" />
            </Array>
          </mxGeometry>
        </mxCell>
        <mxCell id="EHnvzy9CIs-lDDVMUMUv-11" value="" style="edgeStyle=entityRelationEdgeStyle;fontSize=12;html=1;endArrow=ERone;endFill=1;rounded=0;strokeColor=#788AA3;fontColor=#46495D;fillColor=#B2C9AB;exitX=1.013;exitY=0.645;exitDx=0;exitDy=0;exitPerimeter=0;entryX=-0.019;entryY=0.515;entryDx=0;entryDy=0;entryPerimeter=0;" edge="1" parent="WIyWlLk6GJQsqaUBKTNV-1" source="aw_Vfg0cEFO7rDNiJGVb-2" target="EHnvzy9CIs-lDDVMUMUv-4">
          <mxGeometry width="100" height="100" relative="1" as="geometry">
            <mxPoint x="190" y="250" as="sourcePoint" />
            <mxPoint x="290" y="150" as="targetPoint" />
            <Array as="points">
              <mxPoint x="290" y="200" />
            </Array>
          </mxGeometry>
        </mxCell>
        <mxCell id="EHnvzy9CIs-lDDVMUMUv-13" value="Scraping - Python" style="swimlane;whiteSpace=wrap;html=1;strokeColor=#788AA3;fontColor=#46495D;fillColor=#B2C9AB;" vertex="1" parent="WIyWlLk6GJQsqaUBKTNV-1">
          <mxGeometry x="20" y="280" width="250" height="260" as="geometry" />
        </mxCell>
        <mxCell id="EHnvzy9CIs-lDDVMUMUv-14" value="&lt;div align=&quot;left&quot;&gt;&lt;ul&gt;&lt;li&gt;Url of the site&lt;/li&gt;&lt;li&gt;Find keywords like:&lt;/li&gt;&lt;ul&gt;&lt;li&gt;campy&lt;/li&gt;&lt;li&gt;cult classic&lt;/li&gt;&lt;li&gt;tash&lt;/li&gt;&lt;li&gt;unwatchable&lt;/li&gt;&lt;/ul&gt;&lt;li&gt;when scraping data seperate into movie_id, movie_name ..&lt;/li&gt;&lt;li&gt;Add it to a json file&lt;/li&gt;&lt;li&gt;Scrape the image of the movie&lt;/li&gt;&lt;li&gt;download it locall&lt;/li&gt;&lt;li&gt;add it to s3 and update db&lt;/li&gt;&lt;/ul&gt;&lt;/div&gt;" style="text;html=1;align=left;verticalAlign=middle;whiteSpace=wrap;rounded=0;fontColor=#46495D;" vertex="1" parent="EHnvzy9CIs-lDDVMUMUv-13">
          <mxGeometry x="10" y="60" width="190" height="150" as="geometry" />
        </mxCell>
        <mxCell id="EHnvzy9CIs-lDDVMUMUv-25" value="Movies page" style="html=1;whiteSpace=wrap;strokeColor=none;fillColor=#0079D6;labelPosition=center;verticalLabelPosition=middle;verticalAlign=top;align=center;fontSize=12;outlineConnect=0;spacingTop=-6;fontColor=#FFFFFF;sketch=0;shape=mxgraph.sitemap.page;" vertex="1" parent="WIyWlLk6GJQsqaUBKTNV-1">
          <mxGeometry x="40" y="550" width="150" height="190" as="geometry" />
        </mxCell>
        <mxCell id="EHnvzy9CIs-lDDVMUMUv-26" value="" style="rounded=1;whiteSpace=wrap;html=1;strokeColor=#788AA3;fontColor=#46495D;fillColor=#B2C9AB;rotation=90;" vertex="1" parent="WIyWlLk6GJQsqaUBKTNV-1">
          <mxGeometry x="36.870000000000005" y="615.62" width="108.75" height="82.5" as="geometry" />
        </mxCell>
        <mxCell id="EHnvzy9CIs-lDDVMUMUv-27" value="Photo" style="html=1;whiteSpace=wrap;strokeColor=none;fillColor=#0079D6;labelPosition=center;verticalLabelPosition=middle;verticalAlign=top;align=center;fontSize=12;outlineConnect=0;spacingTop=-6;fontColor=#FFFFFF;sketch=0;shape=mxgraph.sitemap.photo;" vertex="1" parent="WIyWlLk6GJQsqaUBKTNV-1">
          <mxGeometry x="61.25" y="610" width="60" height="45" as="geometry" />
        </mxCell>
        <mxCell id="EHnvzy9CIs-lDDVMUMUv-28" value="Name Release year score | source" style="text;html=1;align=center;verticalAlign=middle;whiteSpace=wrap;rounded=0;fontColor=#46495D;" vertex="1" parent="WIyWlLk6GJQsqaUBKTNV-1">
          <mxGeometry x="51.25" y="668.12" width="80" height="30" as="geometry" />
        </mxCell>
        <mxCell id="EHnvzy9CIs-lDDVMUMUv-30" value="Campy" style="text;html=1;align=center;verticalAlign=middle;whiteSpace=wrap;rounded=0;fontColor=#46495D;" vertex="1" parent="WIyWlLk6GJQsqaUBKTNV-1">
          <mxGeometry x="85" y="560" width="60" height="30" as="geometry" />
        </mxCell>
        <mxCell id="EHnvzy9CIs-lDDVMUMUv-33" value="Category page" style="html=1;whiteSpace=wrap;strokeColor=none;fillColor=#0079D6;labelPosition=center;verticalLabelPosition=middle;verticalAlign=top;align=center;fontSize=12;outlineConnect=0;spacingTop=-6;fontColor=#FFFFFF;sketch=0;shape=mxgraph.sitemap.page;" vertex="1" parent="WIyWlLk6GJQsqaUBKTNV-1">
          <mxGeometry x="200" y="555" width="150" height="180" as="geometry" />
        </mxCell>
        <mxCell id="EHnvzy9CIs-lDDVMUMUv-34" value="Chick flick" style="text;html=1;align=center;verticalAlign=middle;whiteSpace=wrap;rounded=0;fontColor=#46495D;" vertex="1" parent="WIyWlLk6GJQsqaUBKTNV-1">
          <mxGeometry x="210" y="630" width="60" height="30" as="geometry" />
        </mxCell>
        <mxCell id="EHnvzy9CIs-lDDVMUMUv-35" value="Horror" style="text;html=1;align=center;verticalAlign=middle;whiteSpace=wrap;rounded=0;fontColor=#46495D;" vertex="1" parent="WIyWlLk6GJQsqaUBKTNV-1">
          <mxGeometry x="280" y="630" width="60" height="30" as="geometry" />
        </mxCell>
        <mxCell id="EHnvzy9CIs-lDDVMUMUv-53" style="edgeStyle=orthogonalEdgeStyle;rounded=0;orthogonalLoop=1;jettySize=auto;html=1;strokeColor=#788AA3;fontColor=#46495D;fillColor=#B2C9AB;" edge="1" parent="WIyWlLk6GJQsqaUBKTNV-1" source="EHnvzy9CIs-lDDVMUMUv-39" target="EHnvzy9CIs-lDDVMUMUv-46">
          <mxGeometry relative="1" as="geometry" />
        </mxCell>
        <mxCell id="EHnvzy9CIs-lDDVMUMUv-66" style="edgeStyle=orthogonalEdgeStyle;rounded=0;orthogonalLoop=1;jettySize=auto;html=1;entryX=1;entryY=0.5;entryDx=0;entryDy=0;strokeColor=#788AA3;fontColor=#46495D;fillColor=#B2C9AB;" edge="1" parent="WIyWlLk6GJQsqaUBKTNV-1" source="EHnvzy9CIs-lDDVMUMUv-39" target="EHnvzy9CIs-lDDVMUMUv-54">
          <mxGeometry relative="1" as="geometry">
            <Array as="points">
              <mxPoint x="465" y="1050" />
              <mxPoint x="730" y="1050" />
              <mxPoint x="730" y="540" />
            </Array>
          </mxGeometry>
        </mxCell>
        <mxCell id="EHnvzy9CIs-lDDVMUMUv-39" value="Movies" style="outlineConnect=0;dashed=0;verticalLabelPosition=bottom;verticalAlign=top;align=center;html=1;shape=mxgraph.aws3.lambda_function;fillColor=#F58534;gradientColor=none;strokeColor=#788AA3;fontColor=#46495D;" vertex="1" parent="WIyWlLk6GJQsqaUBKTNV-1">
          <mxGeometry x="440" y="939.68" width="49" height="46.22" as="geometry" />
        </mxCell>
        <mxCell id="EHnvzy9CIs-lDDVMUMUv-52" style="edgeStyle=orthogonalEdgeStyle;rounded=0;orthogonalLoop=1;jettySize=auto;html=1;strokeColor=#788AA3;fontColor=#46495D;fillColor=#B2C9AB;" edge="1" parent="WIyWlLk6GJQsqaUBKTNV-1" source="EHnvzy9CIs-lDDVMUMUv-40" target="EHnvzy9CIs-lDDVMUMUv-46">
          <mxGeometry relative="1" as="geometry" />
        </mxCell>
        <mxCell id="EHnvzy9CIs-lDDVMUMUv-63" style="edgeStyle=orthogonalEdgeStyle;rounded=0;orthogonalLoop=1;jettySize=auto;html=1;strokeColor=#788AA3;fontColor=#46495D;fillColor=#B2C9AB;" edge="1" parent="WIyWlLk6GJQsqaUBKTNV-1" source="EHnvzy9CIs-lDDVMUMUv-40">
          <mxGeometry relative="1" as="geometry">
            <mxPoint x="520.5000000000002" y="580" as="targetPoint" />
          </mxGeometry>
        </mxCell>
        <mxCell id="EHnvzy9CIs-lDDVMUMUv-40" value="Categories" style="outlineConnect=0;dashed=0;verticalLabelPosition=bottom;verticalAlign=top;align=center;html=1;shape=mxgraph.aws3.lambda_function;fillColor=#F58534;gradientColor=none;strokeColor=#788AA3;fontColor=#46495D;" vertex="1" parent="WIyWlLk6GJQsqaUBKTNV-1">
          <mxGeometry x="496" y="841.89" width="49" height="48.65" as="geometry" />
        </mxCell>
        <mxCell id="EHnvzy9CIs-lDDVMUMUv-51" style="edgeStyle=orthogonalEdgeStyle;rounded=0;orthogonalLoop=1;jettySize=auto;html=1;strokeColor=#788AA3;fontColor=#46495D;fillColor=#B2C9AB;" edge="1" parent="WIyWlLk6GJQsqaUBKTNV-1" source="EHnvzy9CIs-lDDVMUMUv-43" target="EHnvzy9CIs-lDDVMUMUv-46">
          <mxGeometry relative="1" as="geometry" />
        </mxCell>
        <mxCell id="EHnvzy9CIs-lDDVMUMUv-43" value="tag" style="outlineConnect=0;dashed=0;verticalLabelPosition=bottom;verticalAlign=top;align=center;html=1;shape=mxgraph.aws3.lambda_function;fillColor=#F58534;gradientColor=none;strokeColor=#788AA3;fontColor=#46495D;" vertex="1" parent="WIyWlLk6GJQsqaUBKTNV-1">
          <mxGeometry x="440" y="760" width="49" height="50" as="geometry" />
        </mxCell>
        <mxCell id="EHnvzy9CIs-lDDVMUMUv-57" style="edgeStyle=orthogonalEdgeStyle;rounded=0;orthogonalLoop=1;jettySize=auto;html=1;strokeColor=#788AA3;fontColor=#46495D;fillColor=#B2C9AB;" edge="1" parent="WIyWlLk6GJQsqaUBKTNV-1" source="EHnvzy9CIs-lDDVMUMUv-46" target="EHnvzy9CIs-lDDVMUMUv-56">
          <mxGeometry relative="1" as="geometry" />
        </mxCell>
        <mxCell id="EHnvzy9CIs-lDDVMUMUv-46" value="server in MongoDB Atlas" style="dashed=0;outlineConnect=0;html=1;align=center;labelPosition=center;verticalLabelPosition=bottom;verticalAlign=top;shape=mxgraph.weblogos.mongodb;strokeColor=#788AA3;fontColor=#46495D;fillColor=#B2C9AB;" vertex="1" parent="WIyWlLk6GJQsqaUBKTNV-1">
          <mxGeometry x="350" y="839.9999999999999" width="35.6" height="52.43" as="geometry" />
        </mxCell>
        <mxCell id="EHnvzy9CIs-lDDVMUMUv-50" style="edgeStyle=orthogonalEdgeStyle;rounded=0;orthogonalLoop=1;jettySize=auto;html=1;strokeColor=#788AA3;fontColor=#46495D;fillColor=#B2C9AB;" edge="1" parent="WIyWlLk6GJQsqaUBKTNV-1" source="EHnvzy9CIs-lDDVMUMUv-47" target="EHnvzy9CIs-lDDVMUMUv-39">
          <mxGeometry relative="1" as="geometry" />
        </mxCell>
        <mxCell id="EHnvzy9CIs-lDDVMUMUv-47" value="&lt;div&gt;Amazon API Gateway&lt;/div&gt;&lt;div&gt;Handle HTTP requests&lt;/div&gt;" style="sketch=0;outlineConnect=0;fontColor=#232F3E;gradientColor=none;strokeColor=#ffffff;fillColor=#232F3E;dashed=0;verticalLabelPosition=middle;verticalAlign=bottom;align=center;html=1;whiteSpace=wrap;fontSize=10;fontStyle=1;spacing=3;shape=mxgraph.aws4.productIcon;prIcon=mxgraph.aws4.api_gateway;" vertex="1" parent="WIyWlLk6GJQsqaUBKTNV-1">
          <mxGeometry x="590" y="870" width="50" height="125.9" as="geometry" />
        </mxCell>
        <mxCell id="EHnvzy9CIs-lDDVMUMUv-48" style="edgeStyle=orthogonalEdgeStyle;rounded=0;orthogonalLoop=1;jettySize=auto;html=1;entryX=0.855;entryY=0.855;entryDx=0;entryDy=0;entryPerimeter=0;strokeColor=#788AA3;fontColor=#46495D;fillColor=#B2C9AB;" edge="1" parent="WIyWlLk6GJQsqaUBKTNV-1" source="EHnvzy9CIs-lDDVMUMUv-47" target="EHnvzy9CIs-lDDVMUMUv-43">
          <mxGeometry relative="1" as="geometry" />
        </mxCell>
        <mxCell id="EHnvzy9CIs-lDDVMUMUv-49" style="edgeStyle=orthogonalEdgeStyle;rounded=0;orthogonalLoop=1;jettySize=auto;html=1;entryX=1;entryY=0.5;entryDx=0;entryDy=0;entryPerimeter=0;strokeColor=#788AA3;fontColor=#46495D;fillColor=#B2C9AB;" edge="1" parent="WIyWlLk6GJQsqaUBKTNV-1" source="EHnvzy9CIs-lDDVMUMUv-47" target="EHnvzy9CIs-lDDVMUMUv-40">
          <mxGeometry relative="1" as="geometry" />
        </mxCell>
        <mxCell id="EHnvzy9CIs-lDDVMUMUv-59" style="edgeStyle=orthogonalEdgeStyle;rounded=0;orthogonalLoop=1;jettySize=auto;html=1;strokeColor=#788AA3;fontColor=#46495D;fillColor=#B2C9AB;" edge="1" parent="WIyWlLk6GJQsqaUBKTNV-1" source="EHnvzy9CIs-lDDVMUMUv-54" target="EHnvzy9CIs-lDDVMUMUv-39">
          <mxGeometry relative="1" as="geometry">
            <Array as="points">
              <mxPoint x="730" y="540" />
              <mxPoint x="730" y="1050" />
              <mxPoint x="465" y="1050" />
            </Array>
          </mxGeometry>
        </mxCell>
        <mxCell id="EHnvzy9CIs-lDDVMUMUv-61" style="edgeStyle=orthogonalEdgeStyle;rounded=0;orthogonalLoop=1;jettySize=auto;html=1;strokeColor=#788AA3;fontColor=#46495D;fillColor=#B2C9AB;" edge="1" parent="WIyWlLk6GJQsqaUBKTNV-1" source="EHnvzy9CIs-lDDVMUMUv-54" target="EHnvzy9CIs-lDDVMUMUv-40">
          <mxGeometry relative="1" as="geometry">
            <Array as="points">
              <mxPoint x="521" y="640" />
              <mxPoint x="521" y="640" />
            </Array>
          </mxGeometry>
        </mxCell>
        <mxCell id="EHnvzy9CIs-lDDVMUMUv-65" style="edgeStyle=orthogonalEdgeStyle;rounded=0;orthogonalLoop=1;jettySize=auto;html=1;strokeColor=#788AA3;fontColor=#46495D;fillColor=#B2C9AB;" edge="1" parent="WIyWlLk6GJQsqaUBKTNV-1" source="EHnvzy9CIs-lDDVMUMUv-69" target="EHnvzy9CIs-lDDVMUMUv-43">
          <mxGeometry relative="1" as="geometry">
            <Array as="points">
              <mxPoint x="465" y="620" />
              <mxPoint x="465" y="620" />
            </Array>
          </mxGeometry>
        </mxCell>
        <mxCell id="EHnvzy9CIs-lDDVMUMUv-54" value="React + Vercel/Netlify" style="rounded=0;whiteSpace=wrap;html=1;strokeColor=#788AA3;fontColor=#46495D;fillColor=#B2C9AB;" vertex="1" parent="WIyWlLk6GJQsqaUBKTNV-1">
          <mxGeometry x="415" y="500" width="130" height="80" as="geometry" />
        </mxCell>
        <mxCell id="EHnvzy9CIs-lDDVMUMUv-72" value="" style="edgeStyle=orthogonalEdgeStyle;rounded=0;orthogonalLoop=1;jettySize=auto;html=1;strokeColor=#788AA3;fontColor=#46495D;fillColor=#B2C9AB;" edge="1" parent="WIyWlLk6GJQsqaUBKTNV-1" source="EHnvzy9CIs-lDDVMUMUv-56" target="EHnvzy9CIs-lDDVMUMUv-71">
          <mxGeometry relative="1" as="geometry" />
        </mxCell>
        <mxCell id="EHnvzy9CIs-lDDVMUMUv-76" style="edgeStyle=orthogonalEdgeStyle;rounded=0;orthogonalLoop=1;jettySize=auto;html=1;entryX=1;entryY=0.75;entryDx=0;entryDy=0;strokeColor=#788AA3;fontColor=#46495D;fillColor=#B2C9AB;" edge="1" parent="WIyWlLk6GJQsqaUBKTNV-1" source="EHnvzy9CIs-lDDVMUMUv-56" target="EHnvzy9CIs-lDDVMUMUv-74">
          <mxGeometry relative="1" as="geometry" />
        </mxCell>
        <mxCell id="EHnvzy9CIs-lDDVMUMUv-56" value="&lt;div&gt;Amazon S3&lt;/div&gt;&lt;div&gt;Images of movies&lt;/div&gt;" style="sketch=0;outlineConnect=0;fontColor=#232F3E;gradientColor=none;strokeColor=#ffffff;fillColor=#232F3E;dashed=0;verticalLabelPosition=middle;verticalAlign=bottom;align=center;html=1;whiteSpace=wrap;fontSize=10;fontStyle=1;spacing=3;shape=mxgraph.aws4.productIcon;prIcon=mxgraph.aws4.s3;" vertex="1" parent="WIyWlLk6GJQsqaUBKTNV-1">
          <mxGeometry x="210" y="811.22" width="60" height="110" as="geometry" />
        </mxCell>
        <mxCell id="EHnvzy9CIs-lDDVMUMUv-64" style="edgeStyle=orthogonalEdgeStyle;rounded=0;orthogonalLoop=1;jettySize=auto;html=1;entryX=0.386;entryY=1.015;entryDx=0;entryDy=0;entryPerimeter=0;strokeColor=#788AA3;fontColor=#46495D;fillColor=#B2C9AB;" edge="1" parent="WIyWlLk6GJQsqaUBKTNV-1" source="EHnvzy9CIs-lDDVMUMUv-43" target="EHnvzy9CIs-lDDVMUMUv-54">
          <mxGeometry relative="1" as="geometry" />
        </mxCell>
        <mxCell id="EHnvzy9CIs-lDDVMUMUv-67" value="Returns as JSON" style="text;html=1;align=center;verticalAlign=middle;resizable=0;points=[];autosize=1;strokeColor=none;fillColor=none;fontColor=#46495D;" vertex="1" parent="WIyWlLk6GJQsqaUBKTNV-1">
          <mxGeometry x="670" y="780" width="120" height="30" as="geometry" />
        </mxCell>
        <mxCell id="EHnvzy9CIs-lDDVMUMUv-68" value="Returns as JSON" style="text;html=1;align=center;verticalAlign=middle;resizable=0;points=[];autosize=1;strokeColor=none;fillColor=none;fontColor=#46495D;" vertex="1" parent="WIyWlLk6GJQsqaUBKTNV-1">
          <mxGeometry x="460.5" y="690" width="120" height="30" as="geometry" />
        </mxCell>
        <mxCell id="EHnvzy9CIs-lDDVMUMUv-69" value="Returns as JSON" style="text;html=1;align=center;verticalAlign=middle;resizable=0;points=[];autosize=1;strokeColor=none;fillColor=none;fontColor=#46495D;" vertex="1" parent="WIyWlLk6GJQsqaUBKTNV-1">
          <mxGeometry x="404.5" y="638.12" width="120" height="30" as="geometry" />
        </mxCell>
        <mxCell id="EHnvzy9CIs-lDDVMUMUv-71" value="Movie Image" style="whiteSpace=wrap;html=1;fontSize=10;verticalAlign=bottom;sketch=0;dashed=0;fontStyle=1;spacing=3;labelBackgroundColor=none;" vertex="1" parent="WIyWlLk6GJQsqaUBKTNV-1">
          <mxGeometry x="85" y="810" width="90" height="20" as="geometry" />
        </mxCell>
        <mxCell id="EHnvzy9CIs-lDDVMUMUv-74" value="Source Favicon" style="whiteSpace=wrap;html=1;fontSize=10;verticalAlign=bottom;sketch=0;dashed=0;fontStyle=1;spacing=3;labelBackgroundColor=none;" vertex="1" parent="WIyWlLk6GJQsqaUBKTNV-1">
          <mxGeometry x="85" y="856.22" width="90" height="20" as="geometry" />
        </mxCell>
      </root>
    </mxGraphModel>
  </diagram>
</mxfile>
